<svg width="93" height="145" viewBox="0 0 93 145" fill="none" xmlns="http://www.w3.org/2000/svg">
<path fill-rule="evenodd" clip-rule="evenodd" d="M46.6217 144.276C71.798 144.276 92.2866 124.094 92.2866 99.2984C92.2866 74.5 71.798 54.2121 46.6217 54.2121C21.5591 54.2121 0.959381 74.5 0.959381 99.2984C0.959381 124.094 21.5591 144.276 46.6217 144.276Z" fill="#FF6969"/>
<path fill-rule="evenodd" clip-rule="evenodd" d="M46.1858 104.985C39.2118 104.985 33.5455 110.674 33.5455 117.654C33.5455 122.914 36.7063 127.422 41.3925 129.353C49.4562 132.789 59.0467 126.779 59.0467 117.654C59.0467 110.674 53.2721 104.985 46.1858 104.985ZM31.913 19.0027L31.8007 24.2627C36.487 22.8667 41.3925 22.9747 45.8609 24.3694L46.9506 17.6067C48.0403 13.8494 41.6105 7.73072 37.0338 3.97339C36.5966 3.65072 35.3986 3.11472 34.9614 2.79339C33.4359 1.61339 34.1993 -1.39462 36.9255 0.753383C43.136 5.69072 50.4389 12.5614 48.912 19.5387L47.932 25.0134C53.9245 27.3761 59.0467 31.9907 61.9881 38.0014C67.7655 49.812 62.753 60.9747 54.0342 69.1334C59.155 69.6694 63.6247 72.4614 66.3509 76.4321C77.9002 78.2567 88.0349 93.6088 71.5787 103.484C69.7269 104.665 67.7655 102.84 69.7269 101.443C76.047 96.8271 75.1766 90.2802 71.5787 87.1667C70.9262 86.523 70.1641 86.0943 69.3993 85.663V85.9865C69.3993 95.3255 61.6633 102.84 52.1824 102.84C45.532 102.84 39.8656 99.19 37.0338 93.7135C31.5841 96.0777 24.0646 95.8621 18.2873 86.7386C15.4555 82.2291 17.5252 80.725 19.5963 83.8386C24.5005 90.3881 31.2565 88.4553 35.1821 85.9865C35.1821 83.5176 35.7235 81.1563 36.5966 79.1167C32.2379 79.8687 27.6612 79.6531 22.757 77.6121C15.6721 74.6067 10.5499 67.952 9.89609 59.2574V55.0694C10.3333 48.5227 13.2748 41.1161 19.2687 33.2787C22.2115 29.4147 25.6985 26.8401 29.4047 25.2281L29.7296 18.5734C30.3861 14.2787 17.6335 9.23206 13.712 8.48273C11.8589 8.16006 11.6423 4.29473 14.8003 5.79873C21.6673 9.23206 32.2379 11.8094 31.913 19.0027Z" fill="black"/>
<path fill-rule="evenodd" clip-rule="evenodd" d="M14.0355 34.6747C15.5651 41.6534 29.0771 44.7654 53.9245 35.7481L57.3032 45.9454C44.7726 56.7894 8.80642 63.0147 9.67951 41.3294L14.0355 34.6747Z" fill="#FF6969"/>
<path fill-rule="evenodd" clip-rule="evenodd" d="M49.7851 110.461C48.5844 110.461 47.603 111.427 47.603 112.607C47.603 113.788 48.5844 114.648 49.7851 114.648C50.8734 114.648 51.8534 113.788 51.8534 112.607C51.8534 111.427 50.8734 110.461 49.7851 110.461ZM48.4734 38.8614L44.2243 40.0414L47.2754 49.8121C48.912 49.2747 50.3279 48.5227 51.7452 47.7707L48.4734 38.8614ZM55.668 75.2521C54.0342 75.2521 52.8362 76.54 52.8362 78.149C52.8362 79.6531 54.0342 80.9406 55.668 80.9406C57.1949 80.9406 58.5025 79.6531 58.5025 78.149C58.5025 76.54 57.1949 75.2521 55.668 75.2521Z" fill="white"/>
</svg>
